<svg width="200" height="200" viewBox="0 0 200 200" fill="none" xmlns="http://www.w3.org/2000/svg">
<rect width="100" height="100" transform="matrix(1 0 0 -1 100 140)" fill="#79C8C7"/>
<path fill-rule="evenodd" clip-rule="evenodd" d="M100 200C44.7715 200 0 155.228 0 100C0 44.7715 44.7715 0 100 0C155.228 0 200 44.7715 200 100C200 155.228 155.228 200 100 200ZM100 133C81.7746 133 67 118.225 67 100C67 81.7746 81.7746 67 100 67C118.225 67 133 81.7746 133 100C133 118.225 118.225 133 100 133Z" fill="#012F34"/>
<path fill-rule="evenodd" clip-rule="evenodd" d="M200 96H196V100H200V96ZM189 96H193V100H189V96ZM189 104H193V108H189V104ZM193 112H189V116H193V112ZM189 120H193V124H189V120ZM193 128H189V132H193V128ZM189 136H193V140H189V136ZM186 96H182V100H186V96ZM186 104H182V108H186V104ZM182 112H186V116H182V112ZM186 120H182V124H186V120ZM182 128H186V132H182V128ZM186 136H182V140H186V136ZM200 104H196V108H200V104ZM179 96H175V100H179V96ZM179 104H175V108H179V104ZM175 112H179V116H175V112ZM179 120H175V124H179V120ZM175 128H179V132H175V128ZM179 136H175V140H179V136ZM200 112H196V116H200V112ZM172 96H168V100H172V96ZM172 104H168V108H172V104ZM168 112H172V116H168V112ZM172 120H168V124H172V120ZM168 128H172V132H168V128ZM172 136H168V140H172V136ZM200 120H196V124H200V120ZM165 96H161V100H165V96ZM165 104H161V108H165V104ZM161 112H165V116H161V112ZM165 120H161V124H165V120ZM161 128H165V132H161V128ZM165 136H161V140H165V136ZM200 128H196V132H200V128ZM158 96H154V100H158V96ZM158 104H154V108H158V104ZM154 112H158V116H154V112ZM158 120H154V124H158V120ZM154 128H158V132H154V128ZM158 136H154V140H158V136ZM200 136H196V140H200V136ZM151 96H147V100H151V96ZM151 104H147V108H151V104ZM147 112H151V116H147V112ZM151 120H147V124H151V120ZM147 128H151V132H147V128ZM151 136H147V140H151V136Z" fill="#F67E7E"/>
</svg>
